<svg xmlns="http://www.w3.org/2000/svg" viewBox="0 0 800 800">
  <defs>
    <linearGradient id="bg" x1="0%" y1="0%" x2="100%" y2="100%">
      <stop offset="0%" stop-color="#0f172a"/>
      <stop offset="100%" stop-color="#1d4ed8"/>
    </linearGradient>
    <radialGradient id="pulse" cx="50%" cy="50%" r="70%">
      <stop offset="0%" stop-color="#38bdf8" stop-opacity="0.95"/>
      <stop offset="100%" stop-color="#0ea5e9" stop-opacity="0"/>
    </radialGradient>
  </defs>

  <rect width="800" height="800" fill="url(#bg)"/>
  <circle cx="400" cy="400" r="280" fill="url(#pulse)" opacity="0.75"/>

  <g fill="none" stroke="#f0f9ff" stroke-width="6">
    <circle cx="400" cy="400" r="260" opacity="0.4"/>
    <circle cx="400" cy="400" r="200" opacity="0.4"/>
    <circle cx="400" cy="400" r="140" opacity="0.4"/>
    <circle cx="400" cy="400" r="80" opacity="0.6"/>
    <path d="M160 400h480"/>
    <path d="M400 160v480"/>
    <path d="M220 220l360 360"/>
    <path d="M580 220l-360 360"/>
  </g>

  <g fill="#f8fafc" font-family="Fira Mono, monospace" text-anchor="middle">
    <text x="400" y="360" font-size="60" font-weight="700">QUANTUM</text>
    <text x="400" y="430" font-size="60" font-weight="700">REKT</text>
    <text x="400" y="500" font-size="28" opacity="0.8">SCAN • SIMULATE • SECURE</text>
  </g>

  <g stroke="#38bdf8" stroke-width="4" opacity="0.5">
    <path d="M120 540c80-120 160-120 240 0s160 120 240 0 160-120 240 0"/>
  </g>
</svg>
